<svg xmlns="http://www.w3.org/2000/svg" width="148" height="36" viewBox="0 0 148 36"><defs><style>.a,.b{fill:#000;}.a{font-size:32px;font-family:Georgia;}</style></defs><text class="a" transform="translate(40 29)"><tspan x="0" y="0">lawyers</tspan></text><path class="b" d="M31.561,12.459l-1.414-1.414a1.5,1.5,0,0,0-2.121,0l-.354.354L20.6,4.328l.354-.354a1.5,1.5,0,0,0,0-2.121L19.54.439a1.5,1.5,0,0,0-2.121,0L9.641,8.217a1.5,1.5,0,0,0,0,2.121l1.414,1.414a1.5,1.5,0,0,0,2.121,0l.354-.354L16,13.874,10.94,18.939l-.354-.354a2,2,0,0,0-2.828,0L.586,25.757a2,2,0,0,0,0,2.828l2.828,2.828a2,2,0,0,0,2.828,0l7.172-7.172a2,2,0,0,0,0-2.828l-.354-.354,5.065-5.065L20.6,18.47l-.354.354a1.5,1.5,0,0,0,0,2.121l1.414,1.414a1.5,1.5,0,0,0,2.121,0l7.778-7.778a1.5,1.5,0,0,0,0-2.121Z" transform="translate(0 2.001)"/></svg>
